<?xml version="1.0" encoding="UTF-8" standalone="no"?>
<!-- Created with Inkscape (http://www.inkscape.org/) -->

<svg
   width="161.47594mm"
   height="25mm"
   viewBox="0 0 161.47594 25"
   version="1.1"
   id="svg5"
   inkscape:version="1.2.2 (b0a8486541, 2022-12-01)"
   sodipodi:docname="secronet.svg"
   xmlns:inkscape="http://www.inkscape.org/namespaces/inkscape"
   xmlns:sodipodi="http://sodipodi.sourceforge.net/DTD/sodipodi-0.dtd"
   xmlns="http://www.w3.org/2000/svg"
   xmlns:svg="http://www.w3.org/2000/svg">
  <sodipodi:namedview
     id="namedview7"
     pagecolor="#ffffff"
     bordercolor="#000000"
     borderopacity="0.25"
     inkscape:showpageshadow="2"
     inkscape:pageopacity="0.0"
     inkscape:pagecheckerboard="0"
     inkscape:deskcolor="#d1d1d1"
     inkscape:document-units="mm"
     showgrid="false"
     inkscape:zoom="3.490491"
     inkscape:cx="340.35326"
     inkscape:cy="35.381842"
     inkscape:window-width="3836"
     inkscape:window-height="2100"
     inkscape:window-x="0"
     inkscape:window-y="0"
     inkscape:window-maximized="1"
     inkscape:current-layer="g2857" />
  <defs
     id="defs2" />
  <g
     inkscape:label="Layer 1"
     inkscape:groupmode="layer"
     id="layer1"
     transform="translate(-4.3807069,-4.7115327)">
    <g
       id="g2857"
       transform="matrix(4.031496,0,0,4.031496,-113.99376,-153.01841)">
      <g
         aria-label="Secronet"
         id="text236"
         style="font-size:12.7px;font-family:'Liberation Sans';-inkscape-font-specification:'Liberation Sans';fill:#803300;stroke:#118bee;stroke-width:4.58644">
        <path
           d="m 30.348637,43.465241 v 1.240234 h 0.620117 v 0.620117 h 3.100586 v -0.620117 h 0.620117 V 42.845123 H 34.06934 v -0.620117 h -0.620117 v -0.620117 h -1.240235 v -0.620117 h -0.620117 v -1.240235 h 1.860352 v 1.240235 h 1.240234 V 39.744537 H 34.06934 V 39.12442 h -3.100586 v 0.620117 h -0.620117 v 0.413779 c 0.969504,0.190878 0.811716,0.364457 0,0.528003 v 0.298453 h 0.620117 v 0.620117 h 0.620117 v 0.620117 h 1.240234 v 0.620117 h 0.620118 v 1.860352 h -1.860352 c 0.0027,-0.101439 0.127125,-0.146632 0.04204,-0.273404 -0.111738,-0.16649 -0.407214,-0.422363 -0.03679,-0.617398 0.09587,-0.05048 -0.0029,-0.224453 -0.0053,-0.349432 z"
           style="font-family:'Classic Console';-inkscape-font-specification:'Classic Console';fill:#118bee;stroke:none;stroke-width:4.58648"
           id="path1995"
           sodipodi:nodetypes="cccccccccccccccccccccccccccccccccccccsscc" />
        <path
           d="m 35.309574,44.705475 h 0.620117 v 0.620117 h 3.100586 v -0.620117 h 0.620117 V 44.085358 H 38.41016 v 0.620117 h -1.860352 v -1.860352 h 3.100586 v -1.240234 h -0.620117 v -0.620117 h -3.100586 v 0.620117 h -0.620117 z m 1.240234,-3.100586 h 1.860352 v 0.620117 h -1.860352 z"
           style="font-family:'Classic Console';-inkscape-font-specification:'Classic Console';fill:#118bee;stroke:none;stroke-width:4.58648"
           id="path1997" />
        <path
           d="m 40.270512,41.604889 h 0.620117 v -0.620117 h 3.100586 v 0.620117 h 0.620117 v 0.620117 h -1.240234 v -0.620117 h -1.860352 v 3.100586 h 1.860352 v -0.620117 h 1.240234 v 0.620117 h -0.620117 v 0.620117 h -3.100586 v -0.620117 h -0.620117 z"
           style="font-family:'Classic Console';-inkscape-font-specification:'Classic Console';fill:#118bee;stroke:none;stroke-width:4.58648"
           id="path1999" />
        <path
           d="m 45.231449,40.984772 v 0.620117 h 0.620117 v 3.100586 h -0.620117 v 0.620117 h 2.480469 v -0.620117 h -0.620117 v -2.480469 h 0.620117 v -0.620117 h 0.620117 v 1.240234 h 1.240234 v -1.240234 h -0.620117 v -0.620117 h -1.860351 v 0.620117 h -0.620118 v -0.620117 z"
           style="font-family:'Classic Console';-inkscape-font-specification:'Classic Console';fill:#118bee;stroke:none;stroke-width:4.58648"
           id="path2001" />
        <path
           d="m 50.192387,44.705475 h 0.620117 v 0.620117 h 3.100586 v -0.620117 h 0.620117 V 41.604889 H 53.91309 v -0.620117 h -3.100586 v 0.620117 h -0.620117 z m 3.100586,-3.100586 v 3.100586 h -1.860352 v -3.100586 z"
           style="font-family:'Classic Console';-inkscape-font-specification:'Classic Console';fill:#118bee;stroke:none;stroke-width:4.58648"
           id="path2003" />
        <path
           d="m 55.773441,45.325592 v -3.720703 h -0.620117 v -0.620117 h 1.240234 v 0.620117 h 0.620118 v -0.620117 h 1.860351 v 0.620117 h 0.620117 v 3.720703 H 58.25391 v -3.720703 h -1.240234 v 3.720703 z"
           style="font-family:'Classic Console';-inkscape-font-specification:'Classic Console';fill:#118bee;stroke:none;stroke-width:4.58648"
           id="path2005" />
        <path
           d="m 60.114262,44.705475 h 0.620117 v 0.620117 h 3.100586 v -0.620117 h 0.620117 v -0.620117 h -1.240234 v 0.620117 h -1.860352 v -1.860352 h 3.100586 v -1.240234 h -0.620117 v -0.620117 h -3.100586 v 0.620117 h -0.620117 z m 1.240234,-3.100586 h 1.860352 v 0.620117 h -1.860352 z"
           style="font-family:'Classic Console';-inkscape-font-specification:'Classic Console';fill:#118bee;stroke:none;stroke-width:4.58648"
           id="path2007" />
        <path
           d="m 66.315433,40.984772 v -1.240235 h 0.620118 V 39.12442 h 0.620117 v 1.860352 l 1.240234,0.0062 v 0.613916 h -1.240234 v 3.100586 h 0.620117 v -0.620117 h 1.240234 v 0.620117 h -0.620117 v 0.620117 h -1.860351 v -0.620117 h -0.620118 v -3.100586 h -1.240234 v -0.620117 z"
           style="font-family:'Classic Console';-inkscape-font-specification:'Classic Console';fill:#118bee;stroke:none;stroke-width:4.58648"
           id="path2009" />
      </g>
      <path
         style="fill:#118bee;fill-opacity:1;stroke:none;stroke-width:0.499999;stroke-opacity:1"
         d="m 30.231029,40.10853 c 0.173559,0.193157 0.370244,0.390732 0.0041,0.484235 -0.262724,0.426256 -0.437614,0.32435 -0.575513,0 -0.524467,-0.185977 -0.243955,-0.335544 0,-0.486764 0.269831,-0.381789 0.421079,-0.191837 0.571413,0.0025 z"
         id="path2119"
         sodipodi:nodetypes="cccccc" />
      <path
         style="fill:#118bee;fill-opacity:1;stroke:none;stroke-width:0.499999;stroke-opacity:1"
         d="m 32.53309,43.78343 c 0.173559,0.193157 0.370244,0.390732 0.0041,0.484235 -0.262724,0.426256 -0.437614,0.32435 -0.575513,0 0.242996,-0.532275 -0.176248,-0.377537 -0.07283,-0.435195 0.269831,-0.381789 0.493907,-0.243406 0.644241,-0.04907 z"
         id="path2859"
         sodipodi:nodetypes="cccccc" />
    </g>
  </g>
</svg>
